<svg width="157" height="157" viewBox="0 0 157 157" fill="none" xmlns="http://www.w3.org/2000/svg">
<path d="M7 77.5001C9.20253 77.132 13.8278 74.6295 16.1772 70.5077C19.1139 65.3554 23.519 57.995 29.0253 56.5229C28.6582 51.0026 28.6582 44.0102 30.4937 37.7539C30.4937 34.0737 29.7595 28.1853 28.6582 26.3452C30.4937 27.4493 33.0633 28.9214 40.7722 27.4493C48.481 25.9772 52.8861 25.9771 59.4937 26.7132C61.3291 22.665 65.3671 17.8807 72.3418 14.2005C77.9215 11.2563 80.0506 6.8401 80.4177 5C80.7848 6.71743 82.8405 10.9619 88.1266 14.2005C94.7342 18.2487 99.5063 21.5609 101.342 26.7132C105.013 25.9772 112.722 25.6091 119.329 27.4492C124.615 28.9213 130.097 27.0812 132.177 25.9772C131.321 27.8173 129.754 32.6751 130.342 37.3858C132.177 43.2741 133.278 53.2107 131.076 56.8909C135.481 58.731 140.253 63.8832 143.557 69.7716C145.025 71.9797 149.43 77.132 152 77.5C149.43 78.236 145.515 82.6523 143.557 85.2284C140.987 89.6447 134.894 98.5508 131.076 98.8452C132.911 104.365 131.458 114.214 131.076 116.51C130.709 118.718 130.709 128.287 131.81 129.023C131.443 128.287 120.797 126.815 119.329 127.919C117.861 129.023 102.81 131.231 100.608 127.919C99.5063 132.703 91.7975 138.223 87.7595 140.431C83.7215 142.64 79.6835 147.792 80.0506 150C80.4177 147.792 74.5443 141.536 71.9747 140.431C69.4051 139.327 59.8608 132.703 58.7595 127.919C54.6481 129.685 44.8101 128.655 40.4051 127.919C37.2236 127.305 29.7595 127.183 28.6582 129.023C30.1266 127.919 30.7295 119.515 29.7595 117.246C28.6582 114.67 26.0886 103.997 28.6582 98.8452C23.6658 96.7843 18.7468 88.6633 16.9114 84.8604C14.5865 82.407 9.20253 77.868 7 77.5001Z" stroke="#A51B6B" stroke-width="2" stroke-miterlimit="16"/>
<path d="M12 77.5001C14.0506 77.1574 18.357 74.8275 20.5443 70.9899C23.2785 66.1929 27.3797 59.3402 32.5063 57.9696C32.1646 52.83 32.1646 46.3199 33.8734 40.495C33.8734 37.0686 33.1899 31.5863 32.1646 29.8731C33.8734 30.9011 36.2658 32.2716 43.443 30.9011C50.6203 29.5305 54.7215 29.5304 60.8734 30.2157C62.5823 26.4467 66.3418 21.9924 72.8354 18.566C78.0304 15.8249 80.0127 11.7132 80.3544 10C80.6962 11.599 82.6101 15.5508 87.5316 18.566C93.6835 22.335 98.1266 25.4188 99.8354 30.2157C103.253 29.5305 110.43 29.1878 116.582 30.901C121.504 32.2716 126.608 30.5584 128.544 29.5305C127.747 31.2437 126.289 35.7665 126.835 40.1523C128.544 45.6345 129.57 54.8858 127.519 58.3122C131.62 60.0254 136.063 64.8223 139.139 70.3046C140.506 72.3604 144.608 77.1574 147 77.5C144.608 78.1853 140.962 82.297 139.139 84.6954C136.747 88.8071 131.073 97.099 127.519 97.3731C129.228 102.513 127.874 111.682 127.519 113.82C127.177 115.876 127.177 124.784 128.203 125.47C127.861 124.784 117.949 123.414 116.582 124.442C115.215 125.47 101.203 127.525 99.1519 124.442C98.1266 128.896 90.9494 134.036 87.1899 136.091C83.4304 138.147 79.6709 142.944 80.0127 145C80.3544 142.944 74.8861 137.119 72.4937 136.091C70.1013 135.063 61.2152 128.896 60.1899 124.442C56.362 126.086 47.2025 125.127 43.1013 124.442C40.1392 123.871 33.1899 123.756 32.1646 125.47C33.5316 124.442 34.093 116.618 33.1899 114.505C32.1646 112.107 29.7722 102.17 32.1646 97.3731C27.5165 95.4543 22.9367 87.8934 21.2278 84.3528C19.0633 82.0685 14.0506 77.8426 12 77.5001Z" stroke="#A51B6B" stroke-width="0.5" stroke-miterlimit="16"/>
<path d="M35 77.5C36.3519 77.2741 39.1909 75.7381 40.6329 73.2082C42.4354 70.0457 45.1392 65.528 48.519 64.6244C48.2937 61.2361 48.2937 56.9442 49.4203 53.1041C49.4203 50.8452 48.9696 47.231 48.2937 46.1015C49.4203 46.7792 50.9975 47.6828 55.7291 46.7792C60.4608 45.8757 63.1646 45.8756 67.2203 46.3274C68.3468 43.8426 70.8253 40.9061 75.1063 38.6472C78.5311 36.8401 79.838 34.1294 80.0633 33C80.2886 34.0541 81.5504 36.6594 84.7949 38.6472C88.8506 41.132 91.7797 43.165 92.9063 46.3274C95.1595 45.8757 99.8911 45.6497 103.947 46.7792C107.191 47.6827 110.556 46.5533 111.833 45.8756C111.307 47.0051 110.346 49.9868 110.706 52.8782C111.833 56.4924 112.509 62.5914 111.157 64.8503C113.861 65.9797 116.79 69.1421 118.818 72.7563C119.719 74.1117 122.423 77.2741 124 77.5C122.423 77.9518 120.019 80.6624 118.818 82.2437C117.241 84.9543 113.5 90.4208 111.157 90.6015C112.284 93.9898 111.391 100.035 111.157 101.444C110.932 102.799 110.932 108.673 111.608 109.124C111.382 108.673 104.848 107.769 103.947 108.447C103.046 109.124 93.8076 110.48 92.4557 108.447C91.7797 111.383 87.0481 114.772 84.5696 116.127C82.0911 117.482 79.6127 120.645 79.838 122C80.0633 120.645 76.4582 116.805 74.881 116.127C73.3038 115.449 67.4456 111.383 66.7696 108.447C64.2461 109.531 58.2076 108.898 55.5038 108.447C53.5511 108.07 48.9696 107.995 48.2937 109.124C49.1949 108.447 49.565 103.289 48.9696 101.896C48.2937 100.315 46.7165 93.764 48.2937 90.6015C45.2294 89.3365 42.2101 84.3519 41.0835 82.0178C39.6565 80.5119 36.3519 77.7259 35 77.5Z" stroke="#A51B6B" stroke-width="0.5" stroke-miterlimit="16"/>
<path d="M57 77.5C57.6835 77.3858 59.119 76.6092 59.8481 75.33C60.7595 73.731 62.1266 71.4467 63.8354 70.9899C63.7215 69.2767 63.7215 67.1066 64.2911 65.165C64.2911 64.0229 64.0633 62.1954 63.7215 61.6244C64.2911 61.967 65.0886 62.4239 67.481 61.967C69.8734 61.5102 71.2405 61.5101 73.2911 61.7386C73.8608 60.4822 75.1139 58.9975 77.2785 57.8553C79.0101 56.9416 79.6709 55.5711 79.7848 55C79.8987 55.533 80.5367 56.8503 82.1772 57.8553C84.2278 59.1117 85.7089 60.1396 86.2785 61.7386C87.4177 61.5102 89.8101 61.3959 91.8608 61.967C93.5013 62.4239 95.2025 61.8528 95.8481 61.5102C95.5823 62.0812 95.0962 63.5888 95.2785 65.0508C95.8481 66.8782 96.1899 69.9619 95.5063 71.1041C96.8734 71.6751 98.3544 73.2741 99.3797 75.1015C99.8354 75.7868 101.203 77.3858 102 77.5C101.203 77.7284 99.9873 79.099 99.3797 79.8985C98.5823 81.269 96.6911 84.033 95.5063 84.1244C96.0759 85.8376 95.6248 88.8941 95.5063 89.6066C95.3924 90.2919 95.3924 93.2614 95.7342 93.4898C95.6203 93.2614 92.3165 92.8046 91.8608 93.1472C91.4051 93.4898 86.7342 94.1751 86.0506 93.1472C85.7089 94.632 83.3165 96.3452 82.0633 97.0305C80.8101 97.7157 79.557 99.3147 79.6709 100C79.7848 99.3147 77.962 97.3731 77.1646 97.0305C76.3671 96.6878 73.4051 94.632 73.0633 93.1472C71.7873 93.6954 68.7342 93.3756 67.3671 93.1472C66.3797 92.9569 64.0633 92.9188 63.7215 93.4898C64.1772 93.1472 64.3643 90.5392 64.0633 89.835C63.7215 89.0355 62.9241 85.7234 63.7215 84.1244C62.1722 83.4848 60.6456 80.9645 60.0759 79.7843C59.3544 79.0228 57.6835 77.6142 57 77.5Z" stroke="#A51B6B" stroke-width="0.5" stroke-miterlimit="16"/>
<path d="M40 77.5C41.2 77.2995 43.72 75.9361 45 73.6904C46.6 70.8833 49 66.8731 52 66.0711C51.8 63.0635 51.8 59.2538 52.8 55.8452C52.8 53.8401 52.4 50.632 51.8 49.6294C52.8 50.231 54.2 51.033 58.4 50.231C62.6 49.429 65 49.4289 68.6 49.8299C69.6 47.6244 71.8 45.0178 75.6 43.0127C78.64 41.4086 79.8 39.0025 80 38C80.2 38.9357 81.32 41.2482 84.2 43.0127C87.8 45.2183 90.4 47.0228 91.4 49.8299C93.4 49.429 97.6 49.2284 101.2 50.231C104.08 51.033 107.067 50.0305 108.2 49.4289C107.733 50.4315 106.88 53.0782 107.2 55.6447C108.2 58.8528 108.8 64.2665 107.6 66.2716C110 67.2741 112.6 70.0812 114.4 73.2893C115.2 74.4924 117.6 77.2995 119 77.5C117.6 77.901 115.467 80.3071 114.4 81.7107C113 84.1168 109.68 88.969 107.6 89.1294C108.6 92.1371 107.808 97.5029 107.6 98.7538C107.4 99.9569 107.4 105.17 108 105.571C107.8 105.17 102 104.368 101.2 104.97C100.4 105.571 92.2 106.774 91 104.97C90.4 107.576 86.2 110.584 84 111.787C81.8 112.99 79.6 115.797 79.8 117C80 115.797 76.8 112.388 75.4 111.787C74 111.185 68.8 107.576 68.2 104.97C65.96 105.932 60.6 105.371 58.2 104.97C56.4667 104.635 52.4 104.569 51.8 105.571C52.6 104.97 52.9285 100.391 52.4 99.1548C51.8 97.7513 50.4 91.9365 51.8 89.1294C49.08 88.0066 46.4 83.5821 45.4 81.5102C44.1333 80.1734 41.2 77.7005 40 77.5Z" stroke="#A51B6B" stroke-width="2" stroke-miterlimit="16"/>
<circle cx="78.5" cy="77.5" r="27" stroke="#A51B6B"/>
<path d="M62.9605 114.999C65.1419 113.953 67.2743 112.828 69.3732 111.657C68.2013 110.466 67.0358 109.25 65.9004 107.993C64.202 108.072 62.5101 108.125 60.8452 108.157C61.4808 110.467 62.1921 112.75 62.9605 114.999Z" fill="#A51B6B"/>
<path d="M88.6274 111.657C90.7229 112.828 92.8686 113.953 95.0402 114.999C95.8082 112.75 96.5198 110.467 97.1558 108.157C95.4906 108.125 93.799 108.072 92.1102 107.993C90.9645 109.25 89.7994 110.467 88.6274 111.657Z" fill="#A51B6B"/>
<path d="M41.1494 93.3916C43.4172 94.1524 45.7246 94.8575 48.0555 95.4876C48.0886 93.8377 48.1415 92.1615 48.221 90.4792C46.973 89.3573 45.7379 88.2095 44.523 87.0386C43.3411 89.1143 42.2057 91.2397 41.1494 93.3916Z" fill="#A51B6B"/>
<path d="M109.941 95.4875C112.265 94.8578 114.576 94.1523 116.847 93.3914C115.788 91.2396 114.656 89.1142 113.464 87.0381C112.262 88.1992 111.027 89.3535 109.789 90.4787C109.878 92.1614 109.918 93.8376 109.941 95.4875Z" fill="#A51B6B"/>
<path d="M116.847 61.6085C114.576 60.8473 112.265 60.1422 109.941 59.5125C109.918 61.1627 109.878 62.8385 109.789 64.5212C111.027 65.6461 112.262 66.8008 113.464 67.9619C114.656 65.8858 115.788 63.7603 116.847 61.6085Z" fill="#A51B6B"/>
<path d="M48.0555 59.5125C45.7246 60.1422 43.4172 60.8476 41.1494 61.6085C42.2053 63.76 43.3411 65.8854 44.523 67.9619C45.7379 66.7906 46.973 65.6427 48.221 64.5212C48.1419 62.8385 48.0886 61.1627 48.0555 59.5125Z" fill="#A51B6B"/>
<path d="M95.0402 40C92.8686 41.0461 90.7229 42.1714 88.6274 43.3423C89.7994 44.5332 90.9645 45.7496 92.1102 47.0061C93.799 46.9277 95.4906 46.8749 97.1558 46.8421C96.5202 44.5328 95.8082 42.2498 95.0402 40Z" fill="#A51B6B"/>
<path d="M69.3732 43.3423C67.2743 42.1714 65.1419 41.0465 62.9605 40C62.1921 42.2498 61.4808 44.5328 60.8452 46.8421C62.5105 46.8745 64.202 46.9273 65.9004 47.0061C67.0358 45.7496 68.2013 44.5328 69.3732 43.3423Z" fill="#A51B6B"/>
<path d="M70.6372 125.38C72.8315 128.718 75.3737 131.818 78.1994 134.623C78.4597 134.881 78.7267 135.133 79.0001 135.397C79.2739 135.133 79.5406 134.881 79.8013 134.623C82.6266 131.818 85.1691 128.718 87.3664 125.38C84.4824 123.974 81.6728 122.375 79.0001 120.597C76.3274 122.374 73.5182 123.974 70.6372 125.38Z" fill="#A51B6B"/>
<path d="M48.2342 107.98C45.0801 107.361 41.9552 106.526 38.9145 105.497C38.0846 109.39 37.6646 113.363 37.6646 117.333C37.6646 117.694 37.6713 118.062 37.6747 118.436C38.0588 118.446 38.4298 118.453 38.7944 118.453C42.802 118.453 46.8122 118.036 50.7412 117.218C49.7025 114.202 48.8591 111.106 48.2342 107.98Z" fill="#A51B6B"/>
<path d="M109.765 107.981C109.14 111.106 108.297 114.202 107.259 117.217C111.188 118.036 115.198 118.452 119.205 118.452C119.57 118.452 119.941 118.446 120.319 118.436C120.329 118.062 120.335 117.694 120.335 117.333C120.335 113.363 119.915 109.39 119.085 105.497C116.044 106.526 112.919 107.361 109.765 107.981Z" fill="#A51B6B"/>
<path d="M122.5 77.5C124.294 80.1479 125.908 82.9278 127.328 85.7884C130.697 83.6114 133.832 81.0925 136.657 78.293C136.917 78.0351 137.171 77.7705 137.438 77.5C137.171 77.2291 136.917 76.9645 136.657 76.7066C133.832 73.9071 130.697 71.3882 127.328 69.2112C125.908 72.0722 124.294 74.8524 122.5 77.5Z" fill="#A51B6B"/>
<path d="M21.3428 76.7066C21.0889 76.9645 20.8286 77.2291 20.5615 77.5C20.8286 77.7709 21.0822 78.0351 21.3428 78.293C24.1681 81.0925 27.3031 83.6114 30.6722 85.7884C32.0916 82.9278 33.7058 80.1479 35.4996 77.5C33.7058 74.8524 32.0916 72.0722 30.6722 69.2112C27.3027 71.3885 24.1681 73.9071 21.3428 76.7066Z" fill="#A51B6B"/>
<path d="M119.205 36.5471C115.198 36.5471 111.188 36.9632 107.259 37.7822C108.297 40.7977 109.14 43.894 109.765 47.0188C112.919 47.638 116.045 48.4732 119.085 49.5022C119.915 45.6096 120.335 41.6359 120.335 37.6662C120.335 37.3049 120.328 36.9373 120.318 36.5631C119.941 36.5538 119.57 36.5471 119.205 36.5471Z" fill="#A51B6B"/>
<path d="M48.2345 47.0191C48.8595 43.8939 49.7029 40.7979 50.7412 37.7824C46.8122 36.9635 42.8016 36.5474 38.7944 36.5474C38.4298 36.5474 38.0588 36.554 37.6746 36.5637C37.6713 36.9379 37.6646 37.3055 37.6646 37.6668C37.6646 41.6368 38.0846 45.6102 38.9145 49.5029C41.9552 48.4735 45.0801 47.6383 48.2345 47.0191Z" fill="#A51B6B"/>
<path d="M87.3654 29.6198C85.1681 26.2815 82.6256 23.1823 79.8003 20.3765C79.5396 20.1186 79.2729 19.8607 78.9991 19.6028C78.7257 19.8607 78.4587 20.1186 78.1984 20.3765C75.3727 23.1823 72.8306 26.2815 70.6362 29.6198C73.5172 31.0257 76.3265 32.6257 78.9991 34.4025C81.6722 32.6257 84.4814 31.026 87.3654 29.6198Z" fill="#A51B6B"/>
<path d="M81.3977 76.1685C81.4892 76.4349 81.5363 76.7169 81.5357 77.0005C81.5357 77.0788 81.5321 77.1577 81.5255 77.237C81.4654 79.7338 80.4595 82.0847 78.6933 83.8505C76.8644 85.6799 74.431 86.6878 71.8408 86.6888C71.5739 86.6888 71.3054 86.6777 71.0396 86.6565C71.4394 87.9334 72.1512 89.1051 73.1066 90.061C74.6787 91.6336 76.7714 92.5 78.9996 92.5C81.2273 92.4995 83.3307 91.623 84.9225 90.0311C86.0664 88.8872 86.8439 87.4451 87.1684 85.8593C87.1835 85.7865 87.1952 85.7269 87.2068 85.6687C87.2958 85.1693 87.3413 84.6608 87.3413 84.1583C87.3413 81.9301 86.4683 79.8313 84.8845 78.2476C83.9141 77.277 82.715 76.5627 81.3977 76.1685Z" fill="#A51B6B"/>
<path d="M76.6023 77.8305C76.5107 77.5651 76.4633 77.2836 76.4633 76.9995C76.4637 76.9212 76.4678 76.8448 76.4729 76.769L76.4744 76.7442C76.5376 74.2572 77.5435 71.9121 79.3067 70.149C81.1356 68.3206 83.5696 67.3127 86.1592 67.3106C86.4276 67.3111 86.696 67.3217 86.9615 67.344C86.5612 66.0671 85.8514 64.8964 84.898 63.9425C83.3228 62.3675 81.228 61.5 79.0003 61.5C76.7726 61.5 74.6783 62.3679 73.1022 63.944C71.9451 65.1011 71.1606 66.5514 70.8325 68.1396C70.8209 68.2008 70.8088 68.263 70.7972 68.3277L70.7658 68.5066C70.695 68.9474 70.6596 69.3963 70.6592 69.8411C70.6592 72.0694 71.5261 74.1636 73.1022 75.7387C74.0798 76.7169 75.2829 77.4347 76.6023 77.8305Z" fill="#A51B6B"/>
<path d="M92.0589 71.1035C90.9028 69.9474 89.45 69.1619 87.8582 68.8323C87.8006 68.8197 87.742 68.8081 87.6829 68.799C87.1789 68.7075 86.6678 68.661 86.1578 68.6594C83.9301 68.6589 81.8353 69.5269 80.2596 71.102C79.2825 72.0791 78.5647 73.2827 78.1694 74.603C78.4338 74.5121 78.7144 74.4641 78.998 74.4635C79.0778 74.4635 79.1537 74.4681 79.2295 74.4727C81.7362 74.5343 84.0787 75.5362 85.8373 77.2948C87.6758 79.1333 88.6883 81.5708 88.6883 84.1595C88.6883 84.4273 88.6762 84.6958 88.6555 84.9606C89.9318 84.5608 91.1031 83.8511 92.0559 82.8982C93.632 81.3216 94.4999 79.2273 94.4999 76.9996C94.4999 74.7719 93.6335 72.6771 92.0589 71.1035Z" fill="#A51B6B"/>
<path d="M77.7403 82.898C78.7164 81.9214 79.4336 80.7183 79.8305 79.3964C79.5646 79.4884 79.282 79.5359 78.9979 79.5355C78.9292 79.5355 78.8595 79.5314 78.7922 79.5254C76.293 79.4784 73.9288 78.4714 72.1495 76.6916C70.319 74.8612 69.3111 72.4282 69.3116 69.8411C69.3116 69.5752 69.3222 69.3057 69.3445 69.0383C68.0696 69.4377 66.8984 70.1469 65.9445 71.1018C64.3684 72.6779 63.5 74.7727 63.5 77.0004C63.5 79.2286 64.3639 81.3183 65.9304 82.8858C67.0915 84.0464 68.5483 84.836 70.1422 85.1671L70.3419 85.2076C70.8261 85.2955 71.3316 85.3405 71.8406 85.3405C74.0699 85.3406 76.1652 84.4726 77.7403 82.898Z" fill="#A51B6B"/>
<path d="M72.0693 93.7354C70.322 94.1851 68.5219 94.4249 66.7095 94.4503C67.2724 96.4719 68.2016 98.42 69.4174 100.132C71.488 99.7838 73.5238 99.0626 75.3536 98.0295C74.0918 96.7339 72.9883 95.2918 72.0693 93.7354Z" fill="#A51B6B"/>
<path d="M82.6465 98.0295C84.4764 99.0626 86.5111 99.7838 88.5826 100.132C89.7984 98.42 90.7277 96.472 91.2918 94.4503C89.4783 94.4249 87.6791 94.1851 85.9309 93.7354C85.0118 95.2918 83.9092 96.7339 82.6465 98.0295Z" fill="#A51B6B"/>
<path d="M76.3799 92.1423C77.0674 93.1979 77.8639 94.1781 78.7493 95.0654C78.8309 95.147 78.9145 95.2266 79.0002 95.3102C79.086 95.2266 79.1695 95.147 79.2512 95.0654C80.1364 94.1781 80.9331 93.1979 81.6216 92.1423C80.7179 91.6976 79.8376 91.1917 79.0002 90.6296C78.1628 91.1916 77.2826 91.6976 76.3799 92.1423Z" fill="#A51B6B"/>
<path d="M69.3605 86.6396C68.3723 86.4438 67.3932 86.1797 66.4405 85.8542C66.1804 87.0854 66.0488 88.342 66.0488 89.5974C66.0488 89.7117 66.0509 89.828 66.052 89.9463C66.1723 89.9494 66.2886 89.9515 66.4029 89.9515C67.6585 89.9515 68.915 89.8199 70.1461 89.5609C69.8206 88.6071 69.5564 87.628 69.3605 86.6396Z" fill="#A51B6B"/>
<path d="M88.6398 86.6395C88.4439 87.6279 88.1798 88.607 87.8545 89.5606C89.0855 89.8196 90.3421 89.9512 91.5977 89.9512C91.7118 89.9512 91.8282 89.9491 91.9464 89.9461C91.9496 89.8277 91.9516 89.7115 91.9516 89.5972C91.9516 88.3417 91.8201 87.0852 91.56 85.854C90.6072 86.1796 89.6281 86.4437 88.6398 86.6395Z" fill="#A51B6B"/>
<path d="M95.7354 83.9307C96.1851 85.6778 96.4248 87.4779 96.4503 89.2894C98.4719 88.7274 100.42 87.7983 102.132 86.5824C101.784 84.5119 101.062 82.4761 100.029 80.6462C98.7341 81.908 97.2918 83.0116 95.7354 83.9307Z" fill="#A51B6B"/>
<path d="M61.5518 89.2895C61.5752 87.478 61.8149 85.6778 62.2647 83.9308C60.7083 83.0118 59.266 81.9081 57.9708 80.6465C56.9386 82.4764 56.2165 84.5121 55.8687 86.5826C57.5801 87.7984 59.5282 88.7275 61.5518 89.2895Z" fill="#A51B6B"/>
<path d="M74.0584 88.6611C74.7305 88.3357 75.3874 87.9859 76.0341 87.6217C75.673 87.2514 75.314 86.8731 74.9642 86.4824C74.4409 86.5068 73.9197 86.5232 73.4067 86.5334C73.6026 87.2515 73.8217 87.9614 74.0584 88.6611Z" fill="#A51B6B"/>
<path d="M81.9658 87.6217C82.6114 87.9859 83.2725 88.3357 83.9415 88.6611C84.1781 87.9614 84.3973 87.2515 84.5933 86.5334C84.0802 86.5233 83.5591 86.5069 83.0388 86.4824C82.6858 86.8731 82.3269 87.2515 81.9658 87.6217Z" fill="#A51B6B"/>
<path d="M67.3389 81.9416C68.0375 82.1782 68.7484 82.3975 69.4665 82.5934C69.4767 82.0804 69.493 81.5591 69.5175 81.036C69.133 80.6871 68.7525 80.3302 68.3782 79.9661C68.0141 80.6115 67.6643 81.2725 67.3389 81.9416Z" fill="#A51B6B"/>
<path d="M88.5327 82.5935C89.2487 82.3977 89.9606 82.1783 90.6604 81.9417C90.334 81.2726 89.9851 80.6117 89.618 79.9661C89.2477 80.3271 88.8673 80.6861 88.4858 81.036C88.5133 81.5592 88.5257 82.0805 88.5327 82.5935Z" fill="#A51B6B"/>
<path d="M84.2447 71.7555C82.5781 70.8569 80.8145 70.1267 79.0001 69.582C77.1856 70.1267 75.4221 70.8569 73.7556 71.7555C72.857 73.4221 72.1257 75.1856 71.582 77.0001C72.1257 78.8146 72.857 80.5781 73.7556 82.2447C75.4223 83.1433 77.1857 83.8736 79.0001 84.4182C80.8146 83.8736 82.5781 83.1433 84.2447 82.2447C85.1433 80.5781 85.8736 78.8146 86.4183 77.0001C85.8736 75.1856 85.1433 73.422 84.2447 71.7555Z" fill="#A51B6B"/>
<path d="M92.6294 77C93.1914 77.8375 93.6973 78.7166 94.142 79.6213C95.1977 78.9328 96.1799 78.1362 97.0652 77.2508C97.1467 77.1693 97.2263 77.0856 97.31 77C97.2263 76.9144 97.1467 76.8307 97.0652 76.7491C96.1799 75.8638 95.1977 75.0671 94.142 74.3787C93.6973 75.2835 93.1914 76.1627 92.6294 77Z" fill="#A51B6B"/>
<path d="M60.9347 76.7491C60.8552 76.8307 60.7736 76.9144 60.6899 77C60.7736 77.0857 60.8531 77.1693 60.9347 77.2508C61.82 78.1362 62.8022 78.9328 63.8579 79.6213C64.3026 78.7166 64.8084 77.8375 65.3704 77C64.8084 76.1627 64.3026 75.2835 63.8579 74.3787C62.8021 75.0673 61.82 75.8638 60.9347 76.7491Z" fill="#A51B6B"/>
<path d="M90.6604 72.0583C89.9606 71.8216 89.2487 71.6023 88.5327 71.4065C88.5257 71.9197 88.5133 72.4408 88.4858 72.964C88.8673 73.3138 89.2478 73.6729 89.618 74.034C89.9851 73.3884 90.334 72.7274 90.6604 72.0583Z" fill="#A51B6B"/>
<path d="M69.4665 71.4065C68.7484 71.6023 68.0375 71.8217 67.3389 72.0583C67.6642 72.7273 68.0141 73.3883 68.3782 74.034C68.7525 73.6697 69.133 73.3128 69.5175 72.964C69.4931 72.4408 69.4767 71.9197 69.4665 71.4065Z" fill="#A51B6B"/>
<path d="M96.4503 64.7104C96.4248 66.5219 96.1851 68.3222 95.7354 70.0694C97.2918 70.9884 98.7341 72.092 100.029 73.3536C101.062 71.5237 101.784 69.4879 102.131 67.4175C100.42 66.2015 98.4719 65.2725 96.4503 64.7104Z" fill="#A51B6B"/>
<path d="M61.5514 64.7104C59.5278 65.2725 57.5797 66.2015 55.8682 67.4175C56.216 69.4879 56.9381 71.5237 57.9703 73.3536C59.2655 72.0909 60.7078 70.9884 62.2643 70.0694C61.8145 68.3221 61.5748 66.5219 61.5514 64.7104Z" fill="#A51B6B"/>
<path d="M91.5977 64.0486C90.3421 64.0486 89.0855 64.1802 87.8545 64.4392C88.1798 65.3928 88.4439 66.3721 88.6398 67.3603C89.6281 67.5561 90.6073 67.8203 91.5598 68.1457C91.82 66.9146 91.9515 65.6579 91.9515 64.4025C91.9515 64.2882 91.9495 64.172 91.9463 64.0536C91.8282 64.0507 91.7118 64.0486 91.5977 64.0486Z" fill="#A51B6B"/>
<path d="M69.3602 67.3603C69.556 66.3719 69.8203 65.3928 70.1456 64.4392C68.9145 64.1802 67.6579 64.0486 66.4024 64.0486C66.2881 64.0486 66.1719 64.0507 66.0515 64.0537C66.0504 64.1721 66.0483 64.2884 66.0483 64.4026C66.0483 65.6582 66.1799 66.9148 66.44 68.1458C67.3927 67.8203 68.3718 67.5561 69.3602 67.3603Z" fill="#A51B6B"/>
<path d="M83.9415 65.3389C83.2725 65.6642 82.6114 66.0141 81.9658 66.3782C82.3269 66.7485 82.6858 67.1268 83.0388 67.5175C83.5591 67.4931 84.0802 67.4767 84.5933 67.4665C84.3975 66.7484 84.1781 66.0385 83.9415 65.3389Z" fill="#A51B6B"/>
<path d="M76.0341 66.3782C75.3874 66.0141 74.7305 65.6643 74.0584 65.3389C73.8217 66.0385 73.6026 66.7484 73.4067 67.4665C73.9198 67.4766 74.4409 67.493 74.9642 67.5175C75.314 67.1268 75.673 66.7484 76.0341 66.3782Z" fill="#A51B6B"/>
<path d="M81.6211 61.8576C80.9326 60.8019 80.136 59.8217 79.2507 58.9344C79.169 58.8528 79.0855 58.7713 78.9997 58.6897C78.914 58.7713 78.8304 58.8528 78.7488 58.9344C77.8635 59.8217 77.0669 60.8019 76.3794 61.8576C77.2821 62.3022 78.1623 62.8083 78.9997 63.3702C79.8372 62.8083 80.7174 62.3024 81.6211 61.8576Z" fill="#A51B6B"/>
<path d="M85.9304 60.2646C87.6776 59.8149 89.4779 59.5751 91.2913 59.5517C90.7272 57.5281 89.7981 55.5799 88.5821 53.8684C86.5106 54.2163 84.4759 54.9374 82.646 55.9705C83.9079 57.266 85.0114 58.7081 85.9304 60.2646Z" fill="#A51B6B"/>
<path d="M75.3536 55.9705C73.5238 54.9374 71.488 54.2163 69.4174 53.8684C68.2017 55.5799 67.2724 57.5281 66.7095 59.5497C68.5219 59.5751 70.3221 59.8149 72.0693 60.2646C72.9884 58.7081 74.0919 57.266 75.3536 55.9705Z" fill="#A51B6B"/>
<path d="M72.6245 105.698C74.5241 107.18 76.7086 108.314 78.9999 109C81.2911 108.314 83.4758 107.18 85.3754 105.698C83.1168 105.011 80.9758 103.996 78.9999 102.67C77.0241 103.996 74.883 105.011 72.6245 105.698Z" fill="#A51B6B"/>
<path d="M54.1987 92.7842C54.4936 95.1766 55.2367 97.5211 56.3725 99.6263C58.4787 100.763 60.8232 101.506 63.2157 101.801C62.1005 99.7144 61.3064 97.4852 60.8461 95.1537C58.5146 94.6934 56.2855 93.8993 54.1987 92.7842Z" fill="#A51B6B"/>
<path d="M94.7837 101.801C97.1762 101.506 99.5207 100.763 101.627 99.6263C102.763 97.5211 103.506 95.1766 103.801 92.7842C101.714 93.8993 99.4847 94.6934 97.1533 95.1537C96.6931 97.4852 95.8989 99.7144 94.7837 101.801Z" fill="#A51B6B"/>
<path d="M47 77.0001C47.6865 79.2914 48.819 81.476 50.302 83.3756C50.9896 81.1159 52.0046 78.9769 53.3298 77.0001C52.0046 75.0234 50.9896 72.8844 50.302 70.6248C48.819 72.5243 47.6865 74.709 47 77.0001Z" fill="#A51B6B"/>
<path d="M107.698 70.6248C107.011 72.8844 105.994 75.0244 104.67 77.0001C105.994 78.9758 107.011 81.1158 107.698 83.3756C109.181 81.476 110.314 79.2914 111 77.0001C110.314 74.709 109.181 72.5243 107.698 70.6248Z" fill="#A51B6B"/>
<path d="M63.2157 52.199C60.8232 52.4937 58.4787 53.2368 56.3725 54.3737C55.2367 56.479 54.4936 58.8235 54.1987 61.2159C56.2855 60.1009 58.5146 59.3066 60.8461 58.8464C61.3064 56.5171 62.1005 54.2856 63.2157 52.199Z" fill="#A51B6B"/>
<path d="M94.7837 52.199C95.8989 54.2856 96.6931 56.5149 97.1533 58.8464C99.4847 59.3066 101.714 60.1009 103.801 61.2159C103.506 58.8235 102.763 56.479 101.627 54.3737C99.5207 53.2368 97.1762 52.4938 94.7837 52.199Z" fill="#A51B6B"/>
<path d="M85.3753 48.3018C83.4756 46.8201 81.2911 45.6864 78.9999 45C76.7086 45.6865 74.5241 46.8201 72.6245 48.3019C74.883 48.9895 77.0241 50.0046 78.9999 51.3296C80.9756 50.0045 83.1166 48.9894 85.3753 48.3018Z" fill="#A51B6B"/>
<circle cx="78.5" cy="77.5" r="49.5" stroke="#A51B6B" stroke-width="2"/>
<circle cx="78.5" cy="77.5" r="43.5" stroke="#A51B6B" stroke-width="2"/>
<circle cx="43" cy="42" r="3" fill="#D93092"/>
<circle cx="79" cy="27" r="3" fill="#D93092"/>
<circle cx="79" cy="77" r="5" fill="#D93092"/>
<circle cx="79" cy="77" r="3" stroke="#A51B6B" stroke-width="2"/>
<circle cx="115" cy="42" r="3" fill="#D93092"/>
<circle cx="129" cy="77" r="3" fill="#D93092"/>
<circle cx="28" cy="77" r="3" fill="#D93092"/>
<circle cx="43" cy="113" r="3" fill="#D93092"/>
<circle cx="79" cy="128" r="3" fill="#D93092"/>
<circle cx="115" cy="113" r="3" fill="#D93092"/>
<path d="M64 77.5C64.4405 77.4264 65.3656 76.9259 65.8354 76.1015C66.4228 75.0711 67.3038 73.599 68.4051 73.3046C68.3316 72.2005 68.3316 70.802 68.6987 69.5508C68.6987 68.8147 68.5519 67.6371 68.3316 67.269C68.6987 67.4899 69.2127 67.7843 70.7544 67.4899C72.2962 67.1954 73.1772 67.1954 74.4987 67.3426C74.8658 66.533 75.6734 65.5761 77.0684 64.8401C78.1843 64.2513 78.6101 63.368 78.6835 63C78.757 63.3435 79.1681 64.1924 80.2253 64.8401C81.5468 65.6497 82.5013 66.3122 82.8684 67.3426C83.6025 67.1954 85.1443 67.1218 86.4658 67.4898C87.523 67.7843 88.6194 67.4162 89.0354 67.1954C88.8641 67.5635 88.5509 68.535 88.6684 69.4772C89.0354 70.6548 89.2557 72.6421 88.8152 73.3782C89.6962 73.7462 90.6506 74.7766 91.3114 75.9543C91.6051 76.3959 92.4861 77.4264 93 77.5C92.4861 77.6472 91.703 78.5305 91.3114 79.0457C90.7975 79.9289 89.5787 81.7102 88.8152 81.769C89.1823 82.8731 88.8915 84.8429 88.8152 85.302C88.7418 85.7437 88.7418 87.6574 88.962 87.8046C88.8886 87.6574 86.7595 87.3629 86.4658 87.5838C86.1722 87.8046 83.162 88.2462 82.7215 87.5838C82.5013 88.5406 80.9595 89.6447 80.1519 90.0863C79.3443 90.5279 78.5367 91.5584 78.6101 92C78.6835 91.5584 77.5089 90.3071 76.9949 90.0863C76.481 89.8655 74.5722 88.5406 74.3519 87.5838C73.5296 87.9371 71.562 87.731 70.681 87.5838C70.0447 87.4611 68.5519 87.4365 68.3316 87.8046C68.6253 87.5838 68.7459 85.9031 68.5519 85.4492C68.3316 84.934 67.8177 82.7995 68.3316 81.769C67.3332 81.3569 66.3494 79.7327 65.9823 78.9721C65.5173 78.4814 64.4405 77.5736 64 77.5Z" stroke="#A51B6B" stroke-width="0.5" stroke-miterlimit="16"/>
</svg>
